inDegrees=yes
name=ik_Shooting_orientations.mot
DataType=double
version=3
OpenSimVersion=4.3-2021-08-27-4bc7ad9
endheader
time	pelvis_tilt	pelvis_list	pelvis_rotation	pelvis_tx	pelvis_ty	pelvis_tz	hip_flexion_r	hip_adduction_r	hip_rotation_r	knee_angle_r	knee_angle_r_beta	ankle_angle_r	subtalar_angle_r	mtp_angle_r	hip_flexion_l	hip_adduction_l	hip_rotation_l	knee_angle_l	knee_angle_l_beta	ankle_angle_l	subtalar_angle_l	mtp_angle_l	lumbar_extension	lumbar_bending	lumbar_rotation	arm_flex_r	arm_add_r	arm_rot_r	elbow_flex_r	pro_sup_r	wrist_flex_r	wrist_dev_r	arm_flex_l	arm_add_l	arm_rot_l	elbow_flex_l	pro_sup_l	wrist_flex_l	wrist_dev_l
8.039999999999873	45.89530556649213	44.28551825005411	17.25225368787404	0	0.9399999999999999	0	119.9847127015625	-49.99737815152996	39.99648300631232	33.29997785537486	0.5811942544174913	-4.269939305908231	0	0	-29.99527229838135	-49.98680145982568	5.388785935531974	33.29997785537486	0.5811942544174913	-4.269939305908231	0	0	0	0	0	0	-5.491655580321364	0	41.92255073909413	34.41054682921767	0	0	0	-5.491655580321364	0	41.92255073909413	34.41054682921767	0	0
8.049999999999873	48.08454320261766	54.71668595761173	18.04638602764973	0	0.9399999999999999	0	119.9842213781775	-49.99698670758468	39.99721512242777	33.35398930844203	0.5821369321073	-4.27672804385032	0	0	-29.99465950165659	-49.97839101749943	15.24989552910757	33.35398930844203	0.5821369321073	-4.27672804385032	0	0	0	0	0	0	-5.501832107447779	0	42.00711726243084	34.4740400512348	0	0	0	-5.501832107447779	0	42.00711726243084	34.4740400512348	0	0
8.059999999999873	46.00810834336471	44.25537012617408	17.0365671732421	0	0.9399999999999999	0	119.984671221907	-49.99738824007173	39.99647454822264	33.4015673412045	0.5829673254306268	-4.282679960293917	0	0	-29.99527300690524	-49.98649485287757	5.797489669639996	33.4015673412045	0.5829673254306268	-4.282679960293917	0	0	0	0	0	0	-5.510811690379038	0	42.08158380536925	34.52982428352041	0	0	0	-5.510811690379038	0	42.08158380536925	34.52982428352041	0	0
8.069999999999872	44.08034768339121	52.75413757948976	18.6376785663995	0	0.9399999999999999	0	119.9893511588024	-49.99700292624927	39.99681115947013	33.43203979917661	0.5834991701534157	-4.28647538455959	0	0	-29.99475622576322	-49.94979663928767	11.47775066524346	33.43203979917661	0.5834991701534157	-4.28647538455959	0	0	0	0	0	0	-5.516571662373578	0	42.12925473831629	34.56546285234257	0	0	0	-5.516571662373578	0	42.12925473831629	34.56546285234257	0	0
8.079999999999872	54.34712828300434	55.8749315578527	4.585150117389184	0	0.9399999999999999	0	119.9820993650762	-49.99583369654076	39.99705506279045	33.46224924769457	0.5840264244952658	-4.290251349595236	0	0	-29.9959832538514	-48.59816177349284	14.76353981882162	33.46224924769457	0.5840264244952658	-4.290251349595236	0	0	0	0	0	0	-5.522286792731625	0	42.17660359124947	34.60089975660703	0	0	0	-5.522286792731625	0	42.17660359124947	34.60089975660703	0	0
8.089999999999872	44.30388922497625	52.67510317391244	18.38104605478648	0	0.9399999999999999	0	119.9893647925646	-49.99702464328981	39.99679637131953	33.48307208545622	0.5843898515738152	-4.292840099264139	0	0	-29.99475966708	-49.94027975695634	11.54713618250462	33.48307208545622	0.5843898515738152	-4.292840099264139	0	0	0	0	0	0	-5.526230335038567	0	42.20919216307272	34.62523627937331	0	0	0	-5.526230335038567	0	42.20919216307272	34.62523627937331	0	0
8.099999999999872	55.11246499521427	47.57177893680897	4.224156833648471	0	0.9399999999999999	0	119.9541490519262	-49.99656573246484	39.99684258824789	33.51433071654077	0.5849354176059068	-4.296687401803248	0	0	-29.99619617772169	-49.97225567394865	10.09478636852792	33.51433071654077	0.5849354176059068	-4.296687401803248	0	0	0	0	0	0	-5.532157628914534	0	42.25799323434462	34.6615284451569	0	0	0	-5.532157628914534	0	42.25799323434462	34.6615284451569	0	0
8.109999999999872	32.02750992666106	54.84386974271801	26.82617584931716	0	0.9399999999999999	0	119.9945874892319	-49.99698514685087	39.99602562984981	33.65438079409254	0.5873797525768586	-4.31388439009025	0	0	-29.99420321953285	-44.68782232409099	7.68442670945742	33.65438079409254	0.5873797525768586	-4.31388439009025	0	0	0	0	0	0	-5.558802952720158	0	42.47721938221473	34.8242290032447	0	0	0	-5.558802952720158	0	42.47721938221473	34.8242290032447	0	0
8.119999999999871	6.314309105387688	59.10812662612275	49.77998234456935	0	0.9399999999999999	0	119.9969765663841	-49.99682608905098	39.99484966476241	33.7505439787103	0.5890581167676417	-4.325351690307909	0	0	-29.98989472486634	-34.83749031158548	7.538129991423772	33.7505439787103	0.5890581167676417	-4.325351690307909	0	0	0	0	0	0	-5.577186720188424	0	42.62669625247554	34.93382089368969	0	0	0	-5.577186720188424	0	42.62669625247554	34.93382089368969	0	0
8.129999999999871	44.72043373206704	52.61104037358461	17.82458849641453	0	0.9399999999999999	0	119.9895924081496	-49.99708281385676	39.99675615984856	33.84695807751077	0.5907408602370531	-4.33638201650029	0	0	-29.99481576366772	-49.90177471945698	10.81826549932229	33.84695807751077	0.5907408602370531	-4.33638201650029	0	0	0	0	0	0	-5.595723357093037	0	42.77494428982867	35.04068272843146	0	0	0	-5.595723357093037	0	42.77494428982867	35.04068272843146	0	0
8.139999999999871	44.8169919310032	52.65541838902533	17.68250971765071	0	0.9399999999999999	0	119.9896277744679	-49.99709489819357	39.99674438786325	33.85113728051608	0.590813801089605	-4.336871034502431	0	0	-29.99481250845981	-49.88898341144008	10.65023474146606	33.85113728051608	0.590813801089605	-4.336871034502431	0	0	0	0	0	0	-5.596526694199584	0	42.78139136204145	35.04537604229512	0	0	0	-5.596526694199584	0	42.78139136204145	35.04537604229512	0	0
8.149999999999871	46.69200516695443	44.14513808226913	15.95030712303326	0	0.9399999999999999	0	119.9849384268351	-49.99747101184488	39.99640412970194	33.88114555087147	0.5913375442101352	-4.340406775905298	0	0	-29.995290555789	-49.98321011098592	4.752816382525284	33.88114555087147	0.5913375442101352	-4.340406775905298	0	0	0	0	0	0	-5.60229039685828	0	42.82801776428606	35.0793619785091	0	0	0	-5.60229039685828	0	42.82801776428606	35.0793619785091	0	0
8.15999999999987	52.17956664070301	55.56427036145031	15.79062282817512	0	0.9399999999999999	0	119.9775743012238	-49.99712024188221	39.99737784820868	33.92401779952651	0.5920858061068992	-4.345453320476268	0	0	-29.99466814578204	-49.97830190968373	16.55279290258123	33.92401779952651	0.5920858061068992	-4.345453320476268	0	0	0	0	0	0	-5.610532921538669	0	42.89467465460094	35.12791519062819	0	0	0	-5.610532921538669	0	42.89467465460094	35.12791519062819	0	0
8.16999999999987	51.5489622366121	55.14994442332286	15.98051394146963	0	0.9399999999999999	0	119.9796981095231	-49.99712934753104	39.99732890348445	33.93262825659787	0.5922360869328962	-4.346470835154098	0	0	-29.99470833001368	-49.97525549367784	15.87327435409074	33.93262825659787	0.5922360869328962	-4.346470835154098	0	0	0	0	0	0	-5.612190048263366	0	42.90808162171788	35.13769472985886	0	0	0	-5.612190048263366	0	42.90808162171788	35.13769472985886	0	0
8.17999999999987	45.12479118958586	52.4209890004453	17.21676937645247	0	0.9399999999999999	0	119.9896359783353	-49.99713521851311	39.99670897150996	33.94206905667032	0.5924008599781829	-4.347587248489244	0	0	-29.99483553298391	-49.60650382721481	9.742765589663728	33.94206905667032	0.5924008599781829	-4.347587248489244	0	0	0	0	0	0	-5.614007281880538	0	42.92278947798728	35.14842502089192	0	0	0	-5.614007281880538	0	42.92278947798728	35.14842502089192	0	0
8.18999999999987	47.88017625328855	35.35339213931305	14.22821034875459	0	0.9399999999999999	0	119.9763512263585	-49.99775143176755	39.99586725344928	33.99568954037634	0.5933367139653649	-4.353818983288553	0	0	-29.99575225707997	-49.98952569298867	-1.964801283707878	33.99568954037634	0.5933367139653649	-4.353818983288553	0	0	0	0	0	0	-5.624343960228967	0	43.00597798690058	35.20868450079374	0	0	0	-5.624343960228967	0	43.00597798690058	35.20868450079374	0	0
8.19999999999987	32.20412617492487	55.0339495863912	25.52539490001806	0	0.9399999999999999	0	119.9947989652894	-49.99703822982761	39.9957901366763	34.22696790358719	0.5973732828920175	-4.38033430410335	0	0	-29.99441237018294	-42.26066463818544	5.240184829333463	34.22696790358719	0.5973732828920175	-4.38033430410335	0	0	0	0	0	0	-5.669129231828463	0	43.36452866645158	35.46674673220304	0	0	0	-5.669129231828463	0	43.36452866645158	35.46674673220304	0	0
8.209999999999869	51.94181192318474	54.96131385506258	15.46988197849229	0	0.9399999999999999	0	119.9793957909495	-49.9971865179158	39.99730835937089	34.24538283810132	0.5976946841308283	-4.382418778543239	0	0	-29.99469211479512	-49.96893480037796	15.25878322280254	34.24538283810132	0.5976946841308283	-4.382418778543239	0	0	0	0	0	0	-5.672711980842545	0	43.39303447025443	35.48714582044305	0	0	0	-5.672711980842545	0	43.39303447025443	35.48714582044305	0	0
8.219999999999869	31.63591082081948	58.39989137677159	22.10019532654751	0	0.9399999999999999	0	119.9952721763948	-49.99643879230685	39.99551718335555	34.27168185500378	0.5981536885658139	-4.385405474366983	0	0	-29.99518455178919	-36.96553172625325	4.15352773651022	34.27168185500378	0.5981536885658139	-4.385405474366983	0	0	0	0	0	0	-5.677830898473644	0	43.4338382826701	35.5163720470955	0	0	0	-5.677830898473644	0	43.4338382826701	35.5163720470955	0	0
